<?xml version="1.0" encoding="utf-8"?>
<!-- Generator: Adobe Illustrator 23.0.6, SVG Export Plug-In . SVG Version: 6.00 Build 0)  -->
<svg version="1.1" id="Layer_1" xmlns="http://www.w3.org/2000/svg" xmlns:xlink="http://www.w3.org/1999/xlink" x="0px" y="0px"
	 viewBox="0 0 32 32" style="enable-background:new 0 0 32 32;" xml:space="preserve">
<style type="text/css">
	.st0{fill:#9AA0AB;}
</style>
<g id="Guides__x26__Forms">
</g>
<g id="Icons">
	<g>
		<path class="st0" d="M7.3,18.8c0.6,0.3,1.2,0.4,1.9,0.6c1.3-0.6,2.8-1.2,4.4-1.6c-0.3-0.3-0.6-0.7-0.7-1.2c-0.4,0-0.7,0-1.2,0
			c-1.5,0-2.8-0.3-3.9-1c-3.2,0.4-6,1.6-7.7,2.8v7h5.8v-2.5v-0.4H2.9v-2.2C4.1,19.6,5.7,19.1,7.3,18.8z"/>
		<path class="st0" d="M11.6,13.9C11.6,13.9,11.8,13.7,11.6,13.9c0-0.4,0-1,0-1.5c0-0.4,0-1,0.1-1.5h-0.1C10,11,8.7,9.7,8.7,8.1
			s1.3-2.9,2.9-2.9c1,0,1.9,0.4,2.5,1.3c0.7-0.7,1.5-1.3,2.3-1.7c-1-1.5-2.8-2.5-4.7-2.5C8.6,2.3,6,4.9,6,8.1S8.4,13.9,11.6,13.9z"
			/>
		<path class="st0" d="M14.5,12.4c0,3.2,2.6,5.8,5.8,5.8s5.8-2.6,5.8-5.8s-2.6-5.8-5.8-5.8S14.5,9.1,14.5,12.4z M20.4,9.5
			c1.6,0,2.9,1.3,2.9,2.9s-1.3,2.9-2.9,2.9s-2.9-1.3-2.9-2.9S18.8,9.5,20.4,9.5z"/>
		<path class="st0" d="M24.3,20.1c-1.2,0.6-2.5,0.9-3.9,0.9s-2.8-0.3-3.9-1c-3.2,0.4-6,1.6-7.7,2.8v7H32v-6.8
			C30.3,21.7,27.5,20.6,24.3,20.1z M29.1,26.8H11.6v-2.2c1.2-0.6,2.8-1.2,4.4-1.5c1.5,0.6,2.9,0.7,4.4,0.7s2.9-0.3,4.4-0.9
			c1.7,0.3,3.2,0.9,4.4,1.5V26.8z"/>
	</g>
</g>
</svg>
