<?xml version="1.0" encoding="utf-8"?>
<!-- Generator: Adobe Illustrator 23.0.6, SVG Export Plug-In . SVG Version: 6.00 Build 0)  -->
<svg version="1.1" id="Layer_1" xmlns="http://www.w3.org/2000/svg" xmlns:xlink="http://www.w3.org/1999/xlink" x="0px" y="0px"
	 viewBox="0 0 48 48" style="enable-background:new 0 0 48 48;" xml:space="preserve">
<style type="text/css">
	.st0{fill-rule:evenodd;clip-rule:evenodd;fill:#9AA0AB;}
</style>
<path class="st0" d="M47,40L47,40c0,2.8-2.2,5-5,5l0,0H6l0,0c-2.8,0-5-2.2-5-5V11c0-2.2,1.8-4,4-4l0,0h20.2l8.1-2.9
	c0.5-0.2,1.1,0.1,1.3,0.6L35.4,7H39c2.2,0,4,1.8,4,4v2l0,0c2.2,0,4,1.8,4,4V40z M5,9L5,9c-1.1,0-2,0.9-2,2s0.9,2,2,2h3.4l0,0h0.2
	c0,0,0,0,0,0l11-4H5z M34.1,9.2L33,6.3h0l0,0L31,7h0l-5.5,2h0l-11,4h21.1L34.1,9.2z M41,11c0-1.1-0.9-2-2-2h-2.9l1.5,4H41l0,0V11z
	 M43,15H5l0,0c-0.7,0-1.4-0.2-2-0.6V40c0,1.7,1.3,3,3,3h36c1.7,0,3-1.3,3-3v-7h-4c-2.2,0-4-1.8-4-4s1.8-4,4-4h4v-8
	C45,15.9,44.1,15,43,15z M45,31v-4h-4c-1.1,0-2,0.9-2,2s0.9,2,2,2H45z M41,28h2v2h-2V28z"/>
</svg>
