<?xml version="1.0" encoding="utf-8"?>
<!-- Generator: Adobe Illustrator 23.0.6, SVG Export Plug-In . SVG Version: 6.00 Build 0)  -->
<svg version="1.1" id="Layer_1" xmlns="http://www.w3.org/2000/svg" xmlns:xlink="http://www.w3.org/1999/xlink" x="0px" y="0px"
	 viewBox="0 0 24 24" style="enable-background:new 0 0 24 24;" xml:space="preserve">
<style type="text/css">
	.st0{fill:#9AA0AB;}
</style>
<g id="info">
</g>
<g id="icons">
	<g id="statistics">
		<path class="st0" d="M5,12H3c-1.1,0-2,0.9-2,2v6c0,1.1,0.9,2,2,2h2c1.1,0,2-0.9,2-2v-6C7,12.9,6.1,12,5,12z"/>
		<path class="st0" d="M13,2h-2C9.9,2,9,2.9,9,4v16c0,1.1,0.9,2,2,2h2c1.1,0,2-0.9,2-2V4C15,2.9,14.1,2,13,2z"/>
		<path class="st0" d="M21,8h-2c-1.1,0-2,0.9-2,2v10c0,1.1,0.9,2,2,2h2c1.1,0,2-0.9,2-2V10C23,8.9,22.1,8,21,8z"/>
	</g>
</g>
</svg>
