<?xml version="1.0" ?><svg data-name="Layer 1" id="Layer_1" viewBox="0 0 80 80" xmlns="http://www.w3.org/2000/svg"><defs><style>.cls-1{fill:none;stroke:#000;stroke-linecap:round;stroke-linejoin:round;stroke-width:4px;}</style></defs><title/><g id="bnb_change"><path class="cls-1" d="M11,32V25A14,14,0,0,1,25,11h7"/><polyline class="cls-1" points="26 5 32 11 26 17"/><path class="cls-1" d="M69,48v7A14,14,0,0,1,55,69H48"/><polyline class="cls-1" points="54 75 48 69 54 63"/><path class="cls-1" d="M31.384,25.113a20,20,0,1,1,23.5,23.5"/><circle class="cls-1" cx="29" cy="51" r="20"/><path d="M36.293,48.121l-6.586-6.586a1,1,0,0,0-1.414,0l-6.586,6.586a1,1,0,0,1-1.414,0l-1.414-1.414a1,1,0,0,1,0-1.414l8.707-8.707a2,2,0,0,1,2.828,0l8.707,8.707a1,1,0,0,1,0,1.414l-1.414,1.414A1,1,0,0,1,36.293,48.121Z"/><path d="M29,66a1.994,1.994,0,0,1-1.414-.586l-8.707-8.707a1,1,0,0,1,0-1.414l1.414-1.414a1,1,0,0,1,1.414,0l6.586,6.586a1,1,0,0,0,1.414,0l6.586-6.586a1,1,0,0,1,1.414,0l1.414,1.414a1,1,0,0,1,0,1.414l-8.707,8.707A1.994,1.994,0,0,1,29,66Z"/><rect height="4" rx="1" ry="1" transform="translate(44.556 -5.569) rotate(45)" width="4" x="27" y="49"/><rect height="4" rx="1" ry="1" transform="translate(40.749 3.624) rotate(45)" width="4" x="14" y="49"/><rect height="4" rx="1" ry="1" transform="translate(48.364 -14.761) rotate(45)" width="4" x="40" y="49"/></g></svg>