<?xml version="1.0" encoding="utf-8"?>
<!-- Generator: Adobe Illustrator 23.0.6, SVG Export Plug-In . SVG Version: 6.00 Build 0)  -->
<svg version="1.1" id="Layer_1" xmlns="http://www.w3.org/2000/svg" xmlns:xlink="http://www.w3.org/1999/xlink" x="0px" y="0px"
	 viewBox="0 0 24 24" style="enable-background:new 0 0 24 24;" xml:space="preserve">
<style type="text/css">
	.st0{fill:#9AA0AB;}
</style>
<g id="Glyph">
	<path class="st0" d="M22,11H2c-0.6,0-1-0.4-1-1s0.4-1,1-1h17.6l-2.3-2.3c-0.4-0.4-0.4-1,0-1.4s1-0.4,1.4,0l4,4
		c0.3,0.3,0.4,0.7,0.2,1.1C22.8,10.8,22.4,11,22,11z M6.7,18.7c0.4-0.4,0.4-1,0-1.4c0,0,0,0,0,0L4.4,15H22c0.6,0,1-0.4,1-1
		s-0.4-1-1-1H2c-0.4,0-0.8,0.2-0.9,0.6C0.9,14,1,14.4,1.3,14.7l4,4C5.7,19.1,6.3,19.1,6.7,18.7C6.7,18.7,6.7,18.7,6.7,18.7z"/>
</g>
</svg>
