<?xml version="1.0" encoding="utf-8"?>
<!-- Generator: Adobe Illustrator 23.0.6, SVG Export Plug-In . SVG Version: 6.00 Build 0)  -->
<svg version="1.1" id="Layer_1" xmlns="http://www.w3.org/2000/svg" xmlns:xlink="http://www.w3.org/1999/xlink" x="0px" y="0px"
	 viewBox="0 0 80 80" style="enable-background:new 0 0 80 80;" xml:space="preserve">
<style type="text/css">
	.st0{fill:#9AA0AB;}
</style>
<title></title>
<path class="st0" d="M11,34c-1.1,0-2-0.9-2-2v-7c0-8.8,7.2-16,16-16h7c1.1,0,2,0.9,2,2s-0.9,2-2,2h-7c-6.6,0-12,5.4-12,12v7
	C13,33.1,12.1,34,11,34z"/>
<path class="st0" d="M26,19c-0.5,0-1-0.2-1.4-0.6c-0.8-0.8-0.8-2,0-2.8l4.6-4.6l-4.6-4.6c-0.8-0.8-0.8-2,0-2.8c0.8-0.8,2-0.8,2.8,0
	l6,6c0.8,0.8,0.8,2,0,2.8l-6,6C27,18.8,26.5,19,26,19z"/>
<path class="st0" d="M55,71h-7c-1.1,0-2-0.9-2-2s0.9-2,2-2h7c6.6,0,12-5.4,12-12v-7c0-1.1,0.9-2,2-2s2,0.9,2,2v7
	C71,63.8,63.8,71,55,71z"/>
<path class="st0" d="M54,77c-0.5,0-1-0.2-1.4-0.6l-6-6c-0.8-0.8-0.8-2,0-2.8l6-6c0.8-0.8,2-0.8,2.8,0s0.8,2,0,2.8L50.8,69l4.6,4.6
	c0.8,0.8,0.8,2,0,2.8C55,76.8,54.5,77,54,77z"/>
<path class="st0" d="M54.9,50.6c-0.9,0-1.8-0.7-2-1.6c-0.2-1.1,0.5-2.1,1.6-2.3c7.2-1.4,12.7-7,14.2-14.2
	c1.9-9.7-4.4-19.2-14.2-21.1c-9.7-1.9-19.2,4.4-21.2,14.2c-0.2,1.1-1.3,1.8-2.4,1.6c-1.1-0.2-1.8-1.3-1.6-2.4
	c2.4-11.9,14-19.7,25.8-17.3c5.8,1.1,10.7,4.5,14,9.3c3.3,4.9,4.4,10.7,3.3,16.5c-1.7,8.8-8.5,15.6-17.3,17.3
	C55.1,50.6,55,50.6,54.9,50.6z"/>
<path class="st0" d="M29,73C16.9,73,7,63.1,7,51s9.9-22,22-22s22,9.9,22,22S41.1,73,29,73z M29,33c-9.9,0-18,8.1-18,18s8.1,18,18,18
	s18-8.1,18-18S38.9,33,29,33z"/>
<path class="st0" d="M36.3,48.1l-6.6-6.6c-0.4-0.4-1-0.4-1.4,0l-6.6,6.6c-0.4,0.4-1,0.4-1.4,0l-1.4-1.4c-0.4-0.4-0.4-1,0-1.4
	l8.7-8.7c0.8-0.8,2-0.8,2.8,0l8.7,8.7c0.4,0.4,0.4,1,0,1.4l-1.4,1.4C37.3,48.5,36.7,48.5,36.3,48.1z"/>
<path class="st0" d="M29,66c-0.5,0-1-0.2-1.4-0.6l-8.7-8.7c-0.4-0.4-0.4-1,0-1.4l1.4-1.4c0.4-0.4,1-0.4,1.4,0l6.6,6.6
	c0.4,0.4,1,0.4,1.4,0l6.6-6.6c0.4-0.4,1-0.4,1.4,0l1.4,1.4c0.4,0.4,0.4,1,0,1.4l-8.7,8.7C30,65.8,29.5,66,29,66z"/>
<path class="st0" d="M29.7,48.9l1.4,1.4c0.4,0.4,0.4,1,0,1.4l-1.4,1.4c-0.4,0.4-1,0.4-1.4,0l-1.4-1.4c-0.4-0.4-0.4-1,0-1.4l1.4-1.4
	C28.7,48.5,29.3,48.5,29.7,48.9z"/>
<path class="st0" d="M16.7,48.9l1.4,1.4c0.4,0.4,0.4,1,0,1.4l-1.4,1.4c-0.4,0.4-1,0.4-1.4,0l-1.4-1.4c-0.4-0.4-0.4-1,0-1.4l1.4-1.4
	C15.7,48.5,16.3,48.5,16.7,48.9z"/>
<path class="st0" d="M42.7,48.9l1.4,1.4c0.4,0.4,0.4,1,0,1.4l-1.4,1.4c-0.4,0.4-1,0.4-1.4,0l-1.4-1.4c-0.4-0.4-0.4-1,0-1.4l1.4-1.4
	C41.7,48.5,42.3,48.5,42.7,48.9z"/>
</svg>
